# xmcd
#
# Track frame offsets: 
#        150
#        19393
#        36979
#        54916
#        73828
#        89297
#        107835
#        128716
#        147362
#        166647
#
# Disc length: 2485 seconds
#
# Revision: 0
# Processed by: cddbd v1.5.2PL0 Copyright (c) Steve Scherf et al.
# Submitted via: ExactAudioCopyFreeDBPlugin 1.0
#
DISCID=8609b30a
DTITLE=Leon Ware - Leon Ware
DYEAR=1982
DGENRE=Soul
TTITLE0=Slippin' Away
TTITLE1=Lost In Love With You
TTITLE2=Shelter
TTITLE3=Why I Came To California
TTITLE4=Deeper Than Love
TTITLE5=Can I Touch You There
TTITLE6=Words Of Love
TTITLE7=Miracles
TTITLE8=Somewhere
TTITLE9=Where Are They Now
EXTD=
EXTT0=
EXTT1=
EXTT2=
EXTT3=
EXTT4=
EXTT5=
EXTT6=
EXTT7=
EXTT8=
EXTT9=
PLAYORDER=
